<?xml version="1.0" encoding="UTF-8"?>
<svg id="Capa_1" data-name="Capa 1" xmlns="http://www.w3.org/2000/svg" version="1.1" viewBox="0 0 348.55 245.54">
  <defs>
    <style>
      .cls-1 {
        fill: #fff212;
      }

      .cls-1, .cls-2, .cls-3 {
        stroke-width: 0px;
      }

      .cls-1, .cls-3 {
        fill-rule: evenodd;
      }

      .cls-2, .cls-3 {
        fill: #000;
      }
    </style>
  </defs>
  <path class="cls-3" d="M264.23,172.11c27.62,0,50.02-22.39,50.02-50.02s-22.39-50.02-50.02-50.02-50.02,22.39-50.02,50.02,22.39,50.02,50.02,50.02M326.47,122.09c0,34.37-27.86,62.23-62.23,62.23s-62.23-27.86-62.23-62.23,27.86-62.23,62.23-62.23,62.23,27.86,62.23,62.23Z"/>
  <path class="cls-2" d="M116.16,114.16l42.63-.3,1.63-66.33-44.26,66.63ZM22.08,216.43L152.05,28.76h27.54l.48,187.45h-22.99l1.09-83.07-54.73.41-54.79,82.88h-26.57Z"/>
  <path class="cls-3" d="M264.76,29.43c-51.74,0-93.68,41.94-93.68,93.68s41.94,93.68,93.68,93.68v-21.23c-40.82-.08-75.22-34.76-75.22-72.46s34.22-74.61,75.1-74.61l.12-19.05Z"/>
  <polygon class="cls-3" points="304.1 153.25 318.28 168.54 306.63 178.6 292.45 163.3 304.1 153.25"/>
  <path class="cls-1" d="M263.94,123.13l-36.68-2.88c-11.66.2-2.64,27.18,6.9,21.01l29.78-18.12Z"/>
  <path class="cls-1" d="M263.49,121.79l-24.84-24.33c-8.66-6.83-20.69,20.18-9.45,20.96l34.29,3.37Z"/>
  <path class="cls-1" d="M263.08,119.22l-1.37-34.39c-1.62-10.67-29.06,3.73-21.38,11.11l22.76,23.28Z"/>
  <path class="cls-1" d="M263.1,125.07l-31.36,19.91c-9.19,7.14,16.65,21.47,20.03,11.22l11.33-31.13Z"/>
  <path class="cls-1" d="M264.59,125.65l-11.37,33.39c-2.43,10.74,28.14,5.71,23.78-3.82l-12.41-29.57Z"/>
  <path class="cls-1" d="M264.83,121.27l36.09-9.53c11.04-4.05-7.85-25.76-14.6-16.94l-21.49,26.47Z"/>
  <path class="cls-1" d="M265.77,122.35l32.98,14.04c10.87,3.38,12.04-25.34,1.02-22.33l-34,8.29Z"/>
  <path class="cls-1" d="M265.63,124.27l14.43,31.04c5.62,9.24,26.3-13.06,16.16-17.27l-30.59-13.77Z"/>
  <path class="cls-1" d="M264.58,119.34l22.32-28.64c6.04-9.59-24.07-14.13-23.39-3.63l1.06,32.27Z"/>
</svg>